<svg id="Warstwa_1" data-name="Warstwa 1" xmlns="http://www.w3.org/2000/svg" viewBox="0 0 430.1 84.63"><defs><style>.cls-1{fill:#e76d7b;}.cls-2{fill:#e76c7a;}</style></defs><path d="M628.68,191a4.15,4.15,0,0,1,1.19-3.19,6.66,6.66,0,0,1,7.39,0,4.15,4.15,0,0,1,1.19,3.19V231.2a4.15,4.15,0,0,1-1.19,3.19,6.66,6.66,0,0,1-7.39,0,4.15,4.15,0,0,1-1.19-3.19Z" transform="translate(-490.09 -168)"/><path class="cls-1" d="M656.17,231.2a4.19,4.19,0,0,1-1.19,3.19,6.66,6.66,0,0,1-7.39,0,4.15,4.15,0,0,1-1.2-3.19V191a4.15,4.15,0,0,1,1.2-3.19,6.66,6.66,0,0,1,7.39,0,4.19,4.19,0,0,1,1.19,3.19V206.7h19.42V191a4.15,4.15,0,0,1,1.19-3.19,6.64,6.64,0,0,1,7.38,0,4.15,4.15,0,0,1,1.2,3.19V231.2a4.15,4.15,0,0,1-1.19,3.19,6.66,6.66,0,0,1-7.39,0,4.15,4.15,0,0,1-1.19-3.19V214.59H656.17Z" transform="translate(-490.09 -168)"/><path class="cls-1" d="M703.12,227.66h16.47a3.11,3.11,0,0,1,2.4,1,4,4,0,0,1,.89,2.85,4,4,0,0,1-.89,2.84,3.16,3.16,0,0,1-2.4,1h-21.8a4.39,4.39,0,0,1-3.29-1.18,4.46,4.46,0,0,1-1.16-3.27V191.43a4.07,4.07,0,0,1,4.45-4.46h21.62a3.21,3.21,0,0,1,2.44.95,4,4,0,0,1,.89,2.84,4.07,4.07,0,0,1-.89,2.86,3.18,3.18,0,0,1-2.44,1H703.12v12.3H717a3.13,3.13,0,0,1,2.37,1,4.8,4.8,0,0,1,0,5.57,3.12,3.12,0,0,1-2.37.94H703.12Z" transform="translate(-490.09 -168)"/><path class="cls-1" d="M753.18,227.42a3.34,3.34,0,0,1,2.51,1,4.12,4.12,0,0,1,.93,3,4.21,4.21,0,0,1-.91,3,3.29,3.29,0,0,1-2.53,1H732.26a4.39,4.39,0,0,1-3.29-1.18,4.46,4.46,0,0,1-1.16-3.27V191a4.19,4.19,0,0,1,1.19-3.19,5.21,5.21,0,0,1,3.68-1.12,5.29,5.29,0,0,1,3.72,1.12,4.19,4.19,0,0,1,1.19,3.19v36.38Z" transform="translate(-490.09 -168)"/><path class="cls-1" d="M769.22,231.2a4.21,4.21,0,0,1-1.17,3.19,5.22,5.22,0,0,1-3.7,1.12,5.13,5.13,0,0,1-3.68-1.12,4.25,4.25,0,0,1-1.16-3.19V191.43A4.07,4.07,0,0,1,764,187h10.13a27.7,27.7,0,0,1,8.12,1.07,15.94,15.94,0,0,1,5.72,3,12,12,0,0,1,3.4,4.66,15.63,15.63,0,0,1,1.13,6,17.64,17.64,0,0,1-1.21,6.66,13.4,13.4,0,0,1-3.6,5.08,16.38,16.38,0,0,1-6,3.26,27.36,27.36,0,0,1-8.36,1.16h-4.1Zm4.63-20.64a8.89,8.89,0,0,0,6.44-2.19,7.94,7.94,0,0,0,2.28-6,7.68,7.68,0,0,0-2.17-5.87q-2.17-2.06-6.8-2.05h-4.38v16.12Z" transform="translate(-490.09 -168)"/><path d="M793.39,195.35q-.36-.56-.63-1a8.48,8.48,0,0,1-.48-1,6.82,6.82,0,0,1-.29-.87,3.78,3.78,0,0,1-.11-.91,4.12,4.12,0,0,1,.51-2A5.62,5.62,0,0,1,793.7,188a6.46,6.46,0,0,1,1.77-1,5.61,5.61,0,0,1,1.88-.35,3.9,3.9,0,0,1,1.7.34,4.2,4.2,0,0,1,1.14.79,5.49,5.49,0,0,1,.8,1c.26.41.6,1,1,1.73L809.58,204c.25.47.49.92.7,1.37s.41.84.6,1.19l.56,1.19h.14c.16-.4.33-.8.52-1.23s.35-.79.56-1.26.45-.93.7-1.4l7.15-13.28c.42-.8.74-1.39,1-1.77a4.73,4.73,0,0,1,.78-1,3.92,3.92,0,0,1,2.77-1.13,5.39,5.39,0,0,1,1.88.35,5.65,5.65,0,0,1,1.65,1,5.25,5.25,0,0,1,1.17,1.44,3.67,3.67,0,0,1,.45,1.8,3.78,3.78,0,0,1-.38,1.7c-.26.53-.61,1.16-1,1.91l-12.93,21.73V231.2a4.19,4.19,0,0,1-1.19,3.19,5.29,5.29,0,0,1-3.72,1.12,5.19,5.19,0,0,1-3.68-1.12A4.19,4.19,0,0,1,806,231.2V216.52Z" transform="translate(-490.09 -168)"/><path d="M829.4,211.79A31.37,31.37,0,0,1,831.12,201a22.78,22.78,0,0,1,4.83-8,20.79,20.79,0,0,1,7.5-5,26.3,26.3,0,0,1,9.71-1.73,25.63,25.63,0,0,1,9.38,1.65,19.63,19.63,0,0,1,7.21,4.78,21.51,21.51,0,0,1,4.63,7.62A29.55,29.55,0,0,1,876,210.45a31.21,31.21,0,0,1-1.72,10.73,22.69,22.69,0,0,1-4.83,8,20.58,20.58,0,0,1-7.49,5,25.88,25.88,0,0,1-9.69,1.74,25.53,25.53,0,0,1-9.37-1.65,19.89,19.89,0,0,1-7.22-4.77,21.49,21.49,0,0,1-4.64-7.6A29.3,29.3,0,0,1,829.4,211.79Zm10-.74a23.84,23.84,0,0,0,1.05,7.41,16.28,16.28,0,0,0,2.86,5.38,11.85,11.85,0,0,0,4.24,3.28,12.93,12.93,0,0,0,10.39,0,11.67,11.67,0,0,0,4.21-3.25,15.8,15.8,0,0,0,2.8-5.32,27.13,27.13,0,0,0,0-14.81,15.72,15.72,0,0,0-2.85-5.38,12.15,12.15,0,0,0-4.26-3.26,12.58,12.58,0,0,0-5.21-1.1,12.43,12.43,0,0,0-5.16,1.08,11.74,11.74,0,0,0-4.19,3.23,15.77,15.77,0,0,0-2.82,5.33A23.93,23.93,0,0,0,839.42,211.05Z" transform="translate(-490.09 -168)"/><path d="M881,191a4.16,4.16,0,0,1,1.21-3.19,5.28,5.28,0,0,1,3.7-1.12,5.21,5.21,0,0,1,3.68,1.12,4.19,4.19,0,0,1,1.19,3.19v24.22a20.31,20.31,0,0,0,.74,5.83,11,11,0,0,0,2.08,4,8,8,0,0,0,3.21,2.32,10.94,10.94,0,0,0,4.06.73,10.14,10.14,0,0,0,3.82-.7,7.87,7.87,0,0,0,3-2.15,10.17,10.17,0,0,0,2-3.67,17,17,0,0,0,.72-5.25V191a4.19,4.19,0,0,1,1.19-3.19,5.21,5.21,0,0,1,3.68-1.12,5.28,5.28,0,0,1,3.7,1.12,4.12,4.12,0,0,1,1.21,3.19V215.4a27.12,27.12,0,0,1-1.35,9A17.06,17.06,0,0,1,915,230.8a16.09,16.09,0,0,1-6.24,3.87,25.09,25.09,0,0,1-8.39,1.3,25.49,25.49,0,0,1-8.34-1.25,15.47,15.47,0,0,1-6.05-3.68,15.84,15.84,0,0,1-3.7-6.08,25.8,25.8,0,0,1-1.26-8.44Z" transform="translate(-490.09 -168)"/><path d="M517.72,252.63c-7.35,0-14.34-2.4-18.89-5.81-8-6-8.71-19.82-8.74-20.4v-37a2.22,2.22,0,0,1,4.43,0v36.81c0,.78.83,12.42,7,17,4,3,10.23,4.91,16.16,4.93a24.26,24.26,0,0,0,18.07-7.41,34.8,34.8,0,0,0,3.41-4.55,40,40,0,0,1,5.48-6.92,2.21,2.21,0,1,1,3.06,3.2,35.4,35.4,0,0,0-4.86,6.19,38.82,38.82,0,0,1-3.88,5.13A28.66,28.66,0,0,1,517.72,252.63Z" transform="translate(-490.09 -168)"/><path d="M503.63,218.26a2.22,2.22,0,0,1-2.21-2.22V176.16a2.22,2.22,0,0,1,4.43,0V216A2.22,2.22,0,0,1,503.63,218.26Z" transform="translate(-490.09 -168)"/><path d="M516,212.21a2.21,2.21,0,0,1-2.21-2.21V170.21a2.22,2.22,0,0,1,4.43,0V210A2.22,2.22,0,0,1,516,212.21Z" transform="translate(-490.09 -168)"/><path d="M528.71,218.26A2.22,2.22,0,0,1,526.5,216V176.16a2.21,2.21,0,1,1,4.42,0V216A2.22,2.22,0,0,1,528.71,218.26Z" transform="translate(-490.09 -168)"/><path d="M574.57,252.63a28.63,28.63,0,0,1-21.21-8.78,38.05,38.05,0,0,1-3.89-5.13,35.4,35.4,0,0,0-4.86-6.19,2.21,2.21,0,0,1,3.06-3.2,40,40,0,0,1,5.48,6.92,34,34,0,0,0,3.42,4.55,24.22,24.22,0,0,0,18,7.41h.09c5.93,0,12.12-1.91,16.15-4.93,6.13-4.6,6.93-16.22,7-17v-36.8a2.22,2.22,0,0,1,4.43,0v37c0,.58-.74,14.4-8.74,20.4C588.91,250.23,581.92,252.63,574.57,252.63Z" transform="translate(-490.09 -168)"/><path d="M588.65,218.26a2.23,2.23,0,0,1-2.22-2.22V176.16a2.22,2.22,0,0,1,4.43,0V216A2.22,2.22,0,0,1,588.65,218.26Z" transform="translate(-490.09 -168)"/><path d="M576.26,212.21a2.21,2.21,0,0,1-2.21-2.21V170.21a2.21,2.21,0,0,1,4.42,0V210A2.21,2.21,0,0,1,576.26,212.21Z" transform="translate(-490.09 -168)"/><path d="M563.57,218.26a2.22,2.22,0,0,1-2.21-2.22V176.16a2.21,2.21,0,1,1,4.42,0V216A2.22,2.22,0,0,1,563.57,218.26Z" transform="translate(-490.09 -168)"/><path class="cls-2" d="M546.14,232.72a2.22,2.22,0,0,1-1.16-.33c-10.86-6.7-12.48-13-12.48-16.17,0-5.54,3.74-8.18,7-8.75a8.21,8.21,0,0,1,6.69,1.66,8.17,8.17,0,0,1,6.67-1.66,8.4,8.4,0,0,1,7,8.75c0,3.16-1.63,9.47-12.49,16.17A2.19,2.19,0,0,1,546.14,232.72Zm-5.15-21a3.84,3.84,0,0,0-.76.07c-.78.14-3.31.86-3.31,4.39,0,1.72.93,6.21,9.22,11.66,8.29-5.45,9.22-9.94,9.22-11.66,0-3.53-2.55-4.26-3.33-4.39-1.43-.26-3.23.18-3.81,1.75a2.22,2.22,0,0,1-4.16,0A3.11,3.11,0,0,0,541,211.76Z" transform="translate(-490.09 -168)"/></svg>