<?xml version="1.0" encoding="utf-8"?>
<!-- Generator: Adobe Illustrator 26.1.0, SVG Export Plug-In . SVG Version: 6.00 Build 0)  -->
<svg version="1.1" id="Layer_1" xmlns="http://www.w3.org/2000/svg" xmlns:xlink="http://www.w3.org/1999/xlink" x="0px" y="0px"
	 width="278px" height="54px" viewBox="0 0 278 54" style="enable-background:new 0 0 278 54;" xml:space="preserve">
<g id="Name" transform="scale(1,-1) translate(0,-104)">
	<path d="M7.854,99.747c0-0.433-0.053-0.81-0.166-1.136c-0.107-0.326-0.254-0.604-0.441-0.837c-0.187-0.235-0.401-0.422-0.647-0.567
		c-0.246-0.144-0.503-0.251-0.767-0.326v-0.037c0.326-0.059,0.628-0.171,0.912-0.34c0.283-0.168,0.529-0.38,0.738-0.631
		c0.211-0.251,0.38-0.551,0.505-0.89c0.126-0.342,0.187-0.719,0.187-1.126c0-0.495-0.083-0.947-0.251-1.35
		c-0.168-0.409-0.43-0.765-0.783-1.064c-0.353-0.302-0.799-0.535-1.342-0.703c-0.54-0.166-1.182-0.251-1.928-0.251h-2.54v12.434
		h2.396c0.733,0,1.361-0.072,1.882-0.222c0.521-0.15,0.952-0.366,1.286-0.639c0.337-0.278,0.58-0.61,0.73-1.003
		C7.776,100.662,7.854,100.226,7.854,99.747z M6.268,99.694c0,0.578-0.206,1.051-0.615,1.423c-0.406,0.374-1.054,0.559-1.928,0.559
		H2.896v-4.292h0.81c0.84,0,1.479,0.203,1.909,0.612C6.049,98.407,6.268,98.969,6.268,99.694z M6.501,93.961
		c0,0.671-0.219,1.203-0.658,1.594c-0.441,0.39-1.067,0.586-1.882,0.586H2.896v-4.361h0.973c0.925,0,1.596,0.182,2.008,0.548
		C6.295,92.696,6.501,93.239,6.501,93.961z M16.161,90.482h-1.337v0.973H14.79c-0.032-0.072-0.112-0.176-0.233-0.313
		c-0.12-0.139-0.275-0.273-0.46-0.398c-0.184-0.126-0.412-0.238-0.674-0.334c-0.265-0.094-0.559-0.142-0.882-0.142
		c-0.388,0-0.727,0.056-1.037,0.168c-0.307,0.112-0.567,0.297-0.783,0.551c-0.217,0.254-0.38,0.58-0.495,0.984
		c-0.115,0.401-0.171,0.896-0.171,1.484v5.677h1.46v-5.567c0-0.722,0.118-1.235,0.35-1.54c0.233-0.307,0.599-0.46,1.091-0.46
		c0.42,0,0.775,0.104,1.062,0.316c0.289,0.211,0.516,0.417,0.687,0.623v6.629h1.457V90.482z M23.116,90.482v5.57
		c0,0.73-0.123,1.257-0.369,1.575c-0.246,0.321-0.62,0.479-1.126,0.479c-0.433,0-0.794-0.11-1.083-0.324
		c-0.286-0.214-0.513-0.428-0.685-0.631v-6.669h-1.457v8.65h1.334v-0.973h0.035c0.037,0.072,0.115,0.179,0.235,0.316
		c0.12,0.139,0.278,0.273,0.471,0.398c0.19,0.126,0.417,0.238,0.682,0.332c0.265,0.096,0.564,0.144,0.901,0.144
		c0.385,0,0.73-0.056,1.045-0.168c0.313-0.115,0.578-0.299,0.791-0.551c0.217-0.254,0.385-0.58,0.505-0.984
		c0.12-0.404,0.179-0.898,0.179-1.487v-5.679L23.116,90.482L23.116,90.482z M26.36,94.68c0,0.877,0.112,1.612,0.345,2.198
		c0.227,0.591,0.521,1.062,0.882,1.425c0.361,0.361,0.77,0.615,1.225,0.767c0.457,0.15,0.914,0.225,1.372,0.225
		c0.275,0,0.516-0.021,0.719-0.062c0.203-0.043,0.374-0.096,0.505-0.155v4.147l1.46,0.16V90.482h-1.334v0.92h-0.035
		c-0.037-0.072-0.104-0.171-0.201-0.297c-0.096-0.126-0.227-0.251-0.396-0.38c-0.166-0.128-0.377-0.235-0.628-0.326
		c-0.254-0.091-0.545-0.134-0.882-0.134c-0.409,0-0.797,0.08-1.163,0.241c-0.364,0.163-0.687,0.422-0.963,0.778
		c-0.278,0.353-0.497,0.81-0.658,1.369C26.442,93.212,26.36,93.889,26.36,94.68z M29.785,91.562c0.227,0,0.433,0.032,0.612,0.091
		c0.182,0.062,0.337,0.134,0.471,0.225c0.131,0.091,0.243,0.185,0.334,0.281c0.091,0.094,0.158,0.176,0.206,0.251v5.337
		c-0.131,0.083-0.283,0.155-0.457,0.217c-0.174,0.059-0.393,0.088-0.658,0.088c-0.337,0-0.652-0.056-0.947-0.168
		c-0.291-0.112-0.551-0.302-0.765-0.567c-0.214-0.265-0.388-0.607-0.511-1.027c-0.126-0.422-0.19-0.939-0.19-1.551
		c0-0.602,0.051-1.104,0.152-1.505c0.104-0.404,0.246-0.727,0.425-0.973c0.179-0.246,0.382-0.425,0.612-0.532
		C29.293,91.616,29.534,91.562,29.785,91.562z M40.652,96.215c0-0.374-0.011-0.695-0.035-0.965c-0.024-0.27-0.048-0.508-0.072-0.711
		h-4.417c0.048-1.021,0.267-1.773,0.66-2.254c0.39-0.479,0.952-0.722,1.685-0.722c0.254,0,0.481,0.032,0.685,0.091
		c0.206,0.062,0.382,0.131,0.532,0.217c0.15,0.083,0.278,0.168,0.38,0.251c0.102,0.086,0.179,0.15,0.225,0.198l0.543-1.027
		c-0.062-0.062-0.152-0.147-0.273-0.262c-0.12-0.112-0.281-0.227-0.484-0.342c-0.206-0.112-0.457-0.214-0.759-0.297
		c-0.297-0.086-0.655-0.126-1.062-0.126c-0.537,0-1.029,0.088-1.468,0.273c-0.436,0.176-0.81,0.46-1.118,0.834
		c-0.307,0.38-0.543,0.861-0.711,1.444c-0.168,0.583-0.254,1.283-0.254,2.102c0,0.77,0.088,1.433,0.262,1.992
		c0.171,0.556,0.412,1.016,0.711,1.38c0.302,0.361,0.65,0.628,1.043,0.802c0.398,0.174,0.826,0.259,1.281,0.259
		c0.829,0,1.479-0.259,1.947-0.783C40.416,98.044,40.652,97.258,40.652,96.215z M37.914,98.159c-0.516,0-0.931-0.217-1.246-0.65
		c-0.31-0.433-0.492-1.059-0.54-1.872h3.155c0.011,0.059,0.021,0.147,0.029,0.262c0.003,0.112,0.005,0.235,0.005,0.369
		c0,0.599-0.12,1.064-0.358,1.396C38.718,97.996,38.368,98.159,37.914,98.159z M46.328,97.383c-0.096,0.11-0.267,0.254-0.521,0.444
		c-0.254,0.185-0.586,0.278-0.995,0.278c-0.382,0-0.676-0.091-0.88-0.27c-0.206-0.179-0.31-0.396-0.31-0.647
		c0-0.326,0.094-0.594,0.281-0.805c0.187-0.209,0.473-0.436,0.858-0.676l0.54-0.324c0.588-0.348,1.051-0.725,1.388-1.126
		c0.334-0.401,0.503-0.922,0.503-1.559c0-0.685-0.238-1.262-0.711-1.733c-0.476-0.468-1.16-0.701-2.048-0.701
		c-0.345,0-0.655,0.035-0.917,0.11c-0.265,0.072-0.495,0.155-0.693,0.251c-0.201,0.096-0.364,0.201-0.497,0.316
		c-0.131,0.112-0.241,0.219-0.324,0.316l0.701,1.152c0.072-0.072,0.16-0.158,0.265-0.251c0.099-0.096,0.222-0.19,0.369-0.281
		c0.144-0.091,0.308-0.163,0.484-0.225c0.179-0.059,0.39-0.091,0.631-0.091c0.436,0,0.762,0.096,0.992,0.286
		c0.23,0.193,0.342,0.428,0.342,0.706c0,0.206-0.029,0.382-0.08,0.532c-0.053,0.152-0.134,0.286-0.243,0.404
		c-0.11,0.12-0.241,0.235-0.398,0.342c-0.152,0.11-0.334,0.23-0.537,0.358l-0.543,0.342c-0.54,0.348-0.963,0.714-1.27,1.102
		c-0.307,0.385-0.457,0.874-0.457,1.476c0,0.324,0.062,0.62,0.187,0.893c0.126,0.267,0.305,0.503,0.532,0.701
		c0.227,0.198,0.492,0.356,0.799,0.471c0.307,0.112,0.634,0.168,0.984,0.168c0.334,0,0.623-0.032,0.864-0.096
		c0.241-0.067,0.447-0.152,0.62-0.254c0.174-0.104,0.318-0.206,0.433-0.307c0.112-0.102,0.206-0.187,0.275-0.262L46.328,97.383z
		 M53.446,90.482v5.57c0,0.709-0.104,1.219-0.307,1.532c-0.203,0.31-0.535,0.468-0.992,0.468c-0.238,0-0.452-0.029-0.639-0.088
		c-0.184-0.059-0.35-0.134-0.497-0.225c-0.144-0.091-0.267-0.187-0.38-0.297c-0.104-0.107-0.195-0.203-0.267-0.286v-6.669h-1.463
		v8.65h1.334v-0.979h0.037c0.059,0.096,0.15,0.214,0.27,0.35c0.118,0.139,0.267,0.273,0.449,0.398
		c0.179,0.128,0.39,0.23,0.628,0.316c0.241,0.083,0.513,0.126,0.816,0.126c0.984,0,1.679-0.385,2.088-1.152
		c0.088,0.12,0.198,0.249,0.342,0.388c0.144,0.139,0.316,0.265,0.505,0.38c0.19,0.115,0.409,0.209,0.647,0.278
		c0.241,0.072,0.503,0.11,0.791,0.11c1.757,0,2.631-1.021,2.631-3.062v-5.805h-1.46v5.57c0,0.709-0.126,1.219-0.38,1.532
		c-0.251,0.31-0.623,0.468-1.115,0.468c-0.409,0-0.749-0.096-1.019-0.297c-0.27-0.198-0.484-0.388-0.639-0.567
		c0.024-0.134,0.043-0.273,0.053-0.422c0.013-0.152,0.019-0.313,0.019-0.479v-5.805L53.446,90.482L53.446,90.482z M63.088,90.482
		h-1.457v8.65h1.457V90.482z M62.366,101.22c-0.299,0-0.54,0.096-0.722,0.289c-0.179,0.193-0.27,0.447-0.27,0.757
		c0,0.299,0.088,0.545,0.27,0.738c0.179,0.193,0.42,0.289,0.722,0.289c0.289,0,0.521-0.096,0.703-0.289
		c0.179-0.193,0.273-0.439,0.273-0.738c0-0.313-0.091-0.564-0.273-0.757C62.89,101.317,62.655,101.22,62.366,101.22z M70.046,90.482
		v5.57c0,0.73-0.12,1.257-0.369,1.575c-0.246,0.321-0.62,0.479-1.126,0.479c-0.433,0-0.791-0.11-1.08-0.324
		c-0.289-0.214-0.516-0.428-0.682-0.631v-6.669h-1.463v8.65h1.334v-0.973h0.037c0.035,0.072,0.115,0.179,0.235,0.316
		c0.12,0.139,0.275,0.273,0.465,0.398c0.193,0.126,0.422,0.238,0.687,0.332c0.265,0.096,0.564,0.144,0.901,0.144
		c0.385,0,0.73-0.056,1.045-0.168c0.313-0.115,0.575-0.299,0.791-0.551c0.217-0.254,0.385-0.58,0.505-0.984
		c0.118-0.404,0.179-0.898,0.179-1.487v-5.679L70.046,90.482L70.046,90.482z M75.145,90.482h-1.457v8.65h1.457V90.482z
		 M74.426,101.22c-0.302,0-0.54,0.096-0.719,0.289c-0.182,0.193-0.273,0.447-0.273,0.757c0,0.299,0.091,0.545,0.273,0.738
		c0.179,0.193,0.417,0.289,0.719,0.289c0.289,0,0.524-0.096,0.701-0.289c0.179-0.193,0.273-0.439,0.273-0.738
		c0-0.313-0.094-0.564-0.273-0.757C74.947,101.317,74.714,101.22,74.426,101.22z M81.11,97.383c-0.096,0.11-0.267,0.254-0.521,0.444
		c-0.254,0.185-0.583,0.278-0.995,0.278c-0.382,0-0.676-0.091-0.88-0.27c-0.206-0.179-0.31-0.396-0.31-0.647
		c0-0.326,0.096-0.594,0.281-0.805c0.187-0.209,0.471-0.436,0.856-0.676l0.54-0.324c0.588-0.348,1.051-0.725,1.388-1.126
		c0.337-0.401,0.503-0.922,0.503-1.559c0-0.685-0.238-1.262-0.711-1.733c-0.476-0.468-1.158-0.701-2.046-0.701
		c-0.35,0-0.655,0.035-0.92,0.11c-0.265,0.072-0.497,0.155-0.693,0.251c-0.201,0.096-0.364,0.201-0.497,0.316
		c-0.131,0.112-0.241,0.219-0.324,0.316l0.701,1.152c0.072-0.072,0.16-0.158,0.265-0.251c0.102-0.096,0.222-0.19,0.369-0.281
		c0.144-0.091,0.307-0.163,0.484-0.225c0.179-0.059,0.39-0.091,0.631-0.091c0.436,0,0.765,0.096,0.992,0.286
		c0.23,0.193,0.342,0.428,0.342,0.706c0,0.206-0.027,0.382-0.08,0.532c-0.053,0.152-0.134,0.286-0.241,0.404
		c-0.11,0.12-0.241,0.235-0.396,0.342c-0.155,0.11-0.337,0.23-0.543,0.358l-0.543,0.342c-0.54,0.348-0.965,0.714-1.27,1.102
		c-0.308,0.385-0.457,0.874-0.457,1.476c0,0.324,0.062,0.62,0.187,0.893c0.128,0.267,0.305,0.503,0.532,0.701
		c0.227,0.198,0.495,0.356,0.799,0.471c0.31,0.112,0.634,0.168,0.984,0.168c0.334,0,0.623-0.032,0.864-0.096
		c0.241-0.067,0.449-0.152,0.62-0.254c0.174-0.104,0.318-0.206,0.433-0.307c0.112-0.102,0.206-0.187,0.278-0.262L81.11,97.383z
		 M87.381,97.942h-1.89v-4.792c0-0.612,0.078-1.029,0.233-1.251c0.158-0.222,0.42-0.334,0.791-0.334
		c0.219,0,0.401,0.032,0.559,0.091c0.158,0.062,0.27,0.112,0.342,0.166l0.198-1.177c-0.061-0.045-0.206-0.12-0.433-0.222
		c-0.23-0.107-0.535-0.155-0.92-0.155c-0.743,0-1.305,0.209-1.677,0.62c-0.372,0.417-0.556,1.104-0.556,2.067v4.989h-1.048v0.976
		l1.048,0.214l0.16,2.415h1.3v-2.415h2.07L87.381,97.942z M94.466,96.215c0-0.374-0.013-0.695-0.037-0.965s-0.048-0.508-0.072-0.711
		h-4.415c0.048-1.021,0.267-1.773,0.658-2.254c0.39-0.479,0.949-0.722,1.685-0.722c0.251,0,0.479,0.032,0.685,0.091
		c0.203,0.062,0.38,0.131,0.532,0.217c0.152,0.083,0.275,0.168,0.38,0.251c0.104,0.086,0.176,0.15,0.225,0.198l0.543-1.027
		c-0.059-0.062-0.152-0.147-0.27-0.262c-0.12-0.112-0.283-0.227-0.487-0.342c-0.203-0.112-0.457-0.214-0.759-0.297
		c-0.299-0.086-0.652-0.126-1.062-0.126c-0.537,0-1.029,0.088-1.468,0.273c-0.439,0.176-0.813,0.46-1.12,0.834
		c-0.302,0.38-0.54,0.861-0.709,1.444c-0.168,0.583-0.254,1.283-0.254,2.102c0,0.77,0.091,1.433,0.262,1.992
		c0.171,0.556,0.409,1.016,0.711,1.38c0.302,0.361,0.652,0.628,1.045,0.802c0.396,0.174,0.826,0.259,1.281,0.259
		c0.829,0,1.479-0.259,1.944-0.783C94.231,98.044,94.466,97.258,94.466,96.215z M91.726,98.159c-0.519,0-0.931-0.217-1.243-0.65
		c-0.31-0.433-0.495-1.059-0.54-1.872h3.153c0.011,0.059,0.021,0.147,0.029,0.262c0.003,0.112,0.005,0.235,0.005,0.369
		c0,0.599-0.118,1.064-0.361,1.396C92.533,97.996,92.183,98.159,91.726,98.159z M100.215,97.854
		c-0.037,0.024-0.115,0.053-0.235,0.088s-0.281,0.053-0.484,0.053c-0.457,0-0.816-0.12-1.075-0.369
		c-0.259-0.246-0.441-0.513-0.551-0.802v-6.345h-1.457v8.65h1.334v-1.171h0.035c0.059,0.168,0.139,0.334,0.235,0.497
		c0.096,0.16,0.217,0.305,0.361,0.433c0.144,0.128,0.316,0.222,0.513,0.294c0.201,0.072,0.436,0.11,0.711,0.11
		c0.206,0,0.372-0.019,0.495-0.056c0.126-0.037,0.227-0.064,0.299-0.091L100.215,97.854z M103.117,90.482h-1.46v8.65h1.46V90.482z
		 M102.397,101.22c-0.302,0-0.54,0.096-0.722,0.289c-0.182,0.193-0.273,0.447-0.273,0.757c0,0.299,0.091,0.545,0.273,0.738
		c0.179,0.193,0.417,0.289,0.722,0.289c0.286,0,0.521-0.096,0.701-0.289c0.179-0.193,0.273-0.439,0.273-0.738
		c0-0.313-0.094-0.564-0.273-0.757C102.919,101.317,102.683,101.22,102.397,101.22z M111.403,90.482h-1.332v0.973h-0.037
		c-0.037-0.072-0.112-0.176-0.233-0.313c-0.12-0.139-0.275-0.273-0.46-0.398c-0.187-0.126-0.412-0.238-0.676-0.334
		c-0.265-0.094-0.562-0.142-0.885-0.142c-0.382,0-0.727,0.056-1.035,0.168s-0.567,0.297-0.783,0.551
		c-0.217,0.254-0.382,0.58-0.497,0.984c-0.115,0.401-0.168,0.896-0.168,1.484v5.677h1.455v-5.567c0-0.722,0.12-1.235,0.35-1.54
		c0.235-0.307,0.599-0.46,1.094-0.46c0.42,0,0.773,0.104,1.059,0.316c0.289,0.211,0.519,0.417,0.687,0.623v6.629h1.455v-8.65
		H111.403z M118.184,90.482v5.57c0,0.709-0.104,1.219-0.308,1.532c-0.206,0.31-0.535,0.468-0.992,0.468
		c-0.238,0-0.455-0.029-0.639-0.088c-0.185-0.059-0.353-0.134-0.497-0.225c-0.142-0.091-0.267-0.187-0.377-0.297
		c-0.107-0.107-0.198-0.203-0.27-0.286v-6.669h-1.457v8.65h1.332v-0.979h0.037c0.059,0.096,0.15,0.214,0.27,0.35
		c0.12,0.139,0.273,0.273,0.452,0.398c0.176,0.128,0.39,0.23,0.631,0.316c0.238,0.083,0.508,0.126,0.81,0.126
		c0.987,0,1.682-0.385,2.091-1.152c0.083,0.12,0.201,0.249,0.34,0.388c0.144,0.139,0.313,0.265,0.505,0.38
		c0.193,0.115,0.406,0.209,0.647,0.278c0.241,0.072,0.505,0.11,0.797,0.11c1.754,0,2.628-1.021,2.628-3.062v-5.805h-1.457v5.57
		c0,0.709-0.126,1.219-0.38,1.532c-0.254,0.31-0.626,0.468-1.115,0.468c-0.409,0-0.749-0.096-1.019-0.297
		c-0.27-0.198-0.484-0.388-0.642-0.567c0.024-0.134,0.043-0.273,0.056-0.422c0.011-0.152,0.016-0.313,0.016-0.479v-5.805
		L118.184,90.482L118.184,90.482z M0.626,76.508c0,0.877,0.112,1.61,0.342,2.201c0.227,0.586,0.521,1.062,0.885,1.423
		c0.361,0.358,0.767,0.612,1.225,0.765c0.457,0.152,0.914,0.227,1.372,0.227c0.275,0,0.516-0.021,0.722-0.064
		c0.203-0.043,0.372-0.094,0.503-0.152v4.142l1.46,0.163V72.31H5.8v0.917H5.765c-0.037-0.072-0.104-0.171-0.201-0.294
		c-0.096-0.128-0.225-0.257-0.396-0.38C5,72.425,4.789,72.318,4.538,72.225c-0.251-0.088-0.545-0.134-0.882-0.134
		c-0.409,0-0.797,0.08-1.163,0.243C2.126,72.5,1.805,72.754,1.53,73.11c-0.278,0.356-0.497,0.81-0.658,1.372
		C0.706,75.038,0.626,75.714,0.626,76.508z M4.049,73.388c0.227,0,0.433,0.032,0.612,0.091c0.179,0.059,0.337,0.136,0.468,0.227
		c0.131,0.086,0.241,0.182,0.334,0.275c0.091,0.099,0.158,0.179,0.206,0.257v5.332c-0.131,0.083-0.283,0.155-0.46,0.219
		c-0.174,0.059-0.393,0.088-0.658,0.088c-0.334,0-0.652-0.056-0.947-0.171c-0.291-0.112-0.551-0.302-0.765-0.567
		c-0.217-0.265-0.388-0.607-0.511-1.027c-0.126-0.422-0.19-0.939-0.19-1.548c0-0.604,0.051-1.104,0.155-1.505
		c0.102-0.404,0.243-0.727,0.422-0.976c0.179-0.246,0.382-0.422,0.612-0.532C3.557,73.444,3.797,73.388,4.049,73.388z
		 M14.918,78.038c0-0.369-0.013-0.695-0.037-0.963c-0.024-0.27-0.048-0.508-0.072-0.711h-4.415c0.048-1.021,0.267-1.775,0.658-2.254
		c0.39-0.481,0.955-0.722,1.685-0.722c0.251,0,0.481,0.032,0.685,0.091c0.203,0.059,0.382,0.134,0.532,0.217
		c0.152,0.083,0.278,0.168,0.377,0.254c0.104,0.086,0.179,0.152,0.227,0.198l0.54-1.024c-0.059-0.064-0.152-0.152-0.273-0.267
		c-0.115-0.11-0.281-0.227-0.487-0.342c-0.203-0.11-0.455-0.211-0.757-0.294c-0.297-0.086-0.655-0.126-1.062-0.126
		c-0.54,0-1.029,0.088-1.468,0.273c-0.439,0.179-0.81,0.457-1.115,0.837c-0.305,0.38-0.545,0.858-0.714,1.441
		c-0.168,0.583-0.251,1.283-0.251,2.099c0,0.77,0.088,1.436,0.262,1.995c0.171,0.559,0.412,1.019,0.711,1.38
		c0.299,0.358,0.647,0.626,1.045,0.8c0.393,0.174,0.824,0.259,1.281,0.259c0.829,0,1.479-0.259,1.947-0.781
		C14.683,79.869,14.918,79.086,14.918,78.038z M12.175,79.984c-0.513,0-0.928-0.217-1.241-0.65
		c-0.313-0.431-0.495-1.059-0.543-1.874h3.158c0.008,0.062,0.019,0.147,0.027,0.262c0.003,0.115,0.005,0.238,0.005,0.369
		c0,0.602-0.12,1.07-0.358,1.398C12.982,79.821,12.634,79.984,12.175,79.984z M20.592,79.209c-0.094,0.11-0.267,0.257-0.521,0.444
		c-0.254,0.185-0.586,0.278-0.992,0.278c-0.388,0-0.682-0.088-0.885-0.267c-0.203-0.182-0.305-0.398-0.305-0.65
		c0-0.326,0.091-0.594,0.278-0.802c0.187-0.209,0.473-0.436,0.858-0.676l0.54-0.324c0.591-0.35,1.054-0.725,1.388-1.128
		c0.337-0.398,0.505-0.92,0.505-1.556c0-0.685-0.238-1.262-0.711-1.73c-0.476-0.471-1.158-0.706-2.048-0.706
		c-0.35,0-0.655,0.035-0.92,0.107c-0.265,0.072-0.497,0.16-0.693,0.254c-0.198,0.096-0.364,0.201-0.495,0.316
		c-0.134,0.112-0.241,0.222-0.326,0.318l0.706,1.155c0.07-0.075,0.158-0.158,0.262-0.257c0.102-0.094,0.225-0.19,0.369-0.275
		c0.144-0.091,0.307-0.168,0.489-0.227c0.176-0.059,0.39-0.091,0.631-0.091c0.433,0,0.762,0.096,0.989,0.289
		c0.227,0.193,0.342,0.428,0.342,0.703c0,0.203-0.027,0.382-0.078,0.532c-0.056,0.152-0.136,0.286-0.246,0.404
		c-0.11,0.12-0.241,0.233-0.398,0.342c-0.155,0.107-0.334,0.227-0.54,0.361l-0.54,0.342c-0.54,0.345-0.965,0.714-1.27,1.096
		c-0.307,0.385-0.46,0.88-0.46,1.479c0,0.324,0.061,0.623,0.187,0.89c0.128,0.273,0.302,0.505,0.532,0.703
		c0.23,0.198,0.497,0.353,0.805,0.471c0.305,0.112,0.634,0.168,0.981,0.168c0.337,0,0.626-0.032,0.864-0.096
		c0.241-0.067,0.447-0.15,0.623-0.251c0.174-0.104,0.318-0.203,0.43-0.305c0.115-0.102,0.209-0.19,0.281-0.265L20.592,79.209z
		 M27.927,83.661h-1.316v1.08h4.201v-1.08h-1.316v-10.22h1.35v-1.134h-4.273v1.134h1.353V83.661z M37.299,72.31v5.567
		c0,0.735-0.12,1.262-0.369,1.578c-0.249,0.318-0.623,0.476-1.128,0.476c-0.431,0-0.789-0.107-1.08-0.324
		c-0.289-0.217-0.516-0.428-0.685-0.631V72.31h-1.463v8.65h1.334v-0.973h0.037c0.037,0.072,0.112,0.176,0.235,0.316
		c0.118,0.139,0.278,0.273,0.468,0.393c0.193,0.128,0.42,0.238,0.687,0.334c0.265,0.096,0.562,0.142,0.898,0.142
		c0.385,0,0.733-0.056,1.045-0.168c0.313-0.115,0.58-0.297,0.791-0.554c0.219-0.251,0.385-0.58,0.505-0.981
		c0.12-0.401,0.179-0.898,0.179-1.487v-5.677h-1.457C37.299,72.305,37.299,72.31,37.299,72.31z M45.662,72.31v5.567
		c0,0.735-0.123,1.262-0.369,1.578c-0.246,0.318-0.62,0.476-1.128,0.476c-0.43,0-0.791-0.107-1.08-0.324
		c-0.289-0.217-0.513-0.428-0.682-0.631V72.31h-1.46v8.65h1.334v-0.973h0.035c0.037,0.072,0.115,0.176,0.238,0.316
		c0.115,0.139,0.273,0.273,0.465,0.393c0.193,0.128,0.42,0.238,0.685,0.334s0.564,0.142,0.901,0.142
		c0.382,0,0.733-0.056,1.045-0.168c0.313-0.115,0.578-0.297,0.791-0.554c0.219-0.251,0.388-0.58,0.508-0.981
		c0.12-0.401,0.179-0.898,0.179-1.487v-5.677h-1.463C45.662,72.305,45.662,72.31,45.662,72.31z M54.853,78.038
		c0-0.369-0.013-0.695-0.037-0.963c-0.024-0.27-0.048-0.508-0.072-0.711h-4.415c0.048-1.021,0.267-1.775,0.66-2.254
		c0.39-0.481,0.949-0.722,1.685-0.722c0.254,0,0.479,0.032,0.685,0.091c0.203,0.059,0.38,0.134,0.532,0.217
		c0.15,0.083,0.275,0.168,0.377,0.254c0.104,0.086,0.176,0.152,0.225,0.198l0.543-1.024c-0.059-0.064-0.15-0.152-0.27-0.267
		c-0.12-0.11-0.281-0.227-0.487-0.342c-0.203-0.11-0.457-0.211-0.759-0.294c-0.299-0.086-0.652-0.126-1.062-0.126
		c-0.54,0-1.029,0.088-1.465,0.273c-0.441,0.179-0.813,0.457-1.118,0.837c-0.305,0.38-0.543,0.858-0.711,1.441
		s-0.254,1.283-0.254,2.099c0,0.77,0.091,1.436,0.262,1.995c0.174,0.559,0.412,1.019,0.711,1.38c0.299,0.358,0.65,0.626,1.045,0.8
		c0.398,0.174,0.826,0.259,1.281,0.259c0.829,0,1.479-0.259,1.949-0.781C54.617,79.869,54.853,79.086,54.853,78.038z M52.115,79.984
		c-0.516,0-0.931-0.217-1.243-0.65c-0.31-0.431-0.492-1.059-0.54-1.874h3.153c0.013,0.062,0.024,0.147,0.027,0.262
		c0.008,0.115,0.008,0.238,0.008,0.369c0,0.602-0.118,1.07-0.361,1.398C52.919,79.821,52.569,79.984,52.115,79.984z M60.604,79.679
		c-0.037,0.024-0.115,0.056-0.235,0.091c-0.12,0.035-0.281,0.053-0.484,0.053c-0.457,0-0.816-0.123-1.075-0.369
		c-0.257-0.243-0.441-0.513-0.548-0.799V72.31h-1.46v8.65h1.334v-1.171h0.035c0.059,0.166,0.139,0.332,0.235,0.495
		c0.096,0.163,0.217,0.307,0.361,0.433c0.144,0.126,0.316,0.225,0.513,0.297c0.195,0.072,0.436,0.11,0.711,0.11
		c0.203,0,0.369-0.021,0.495-0.056c0.126-0.035,0.227-0.064,0.299-0.088L60.604,79.679z M66.762,72.31v5.567
		c0,0.735-0.12,1.262-0.366,1.578c-0.249,0.318-0.623,0.476-1.128,0.476c-0.433,0-0.789-0.107-1.08-0.324
		c-0.291-0.217-0.516-0.428-0.685-0.631V72.31h-1.457v8.65h1.334v-0.973h0.032c0.04,0.072,0.115,0.176,0.235,0.316
		c0.12,0.139,0.278,0.273,0.468,0.393c0.193,0.128,0.422,0.238,0.685,0.334c0.265,0.096,0.564,0.142,0.904,0.142
		c0.382,0,0.73-0.056,1.045-0.168c0.31-0.115,0.575-0.297,0.789-0.554c0.219-0.251,0.385-0.58,0.505-0.981
		c0.12-0.401,0.182-0.898,0.182-1.487v-5.677h-1.463C66.762,72.305,66.762,72.31,66.762,72.31z M7.078,54.133H5.741v0.976H5.706
		c-0.035-0.072-0.112-0.176-0.233-0.318c-0.12-0.136-0.273-0.267-0.457-0.393c-0.184-0.128-0.414-0.238-0.676-0.334
		c-0.265-0.096-0.559-0.144-0.882-0.144c-0.385,0-0.73,0.056-1.037,0.171c-0.305,0.115-0.564,0.297-0.783,0.551
		c-0.217,0.251-0.38,0.58-0.495,0.984c-0.115,0.404-0.171,0.901-0.171,1.487v5.677h1.457v-5.57c0-0.722,0.118-1.233,0.353-1.54
		c0.233-0.307,0.596-0.46,1.091-0.46c0.42,0,0.775,0.104,1.064,0.316c0.289,0.211,0.516,0.417,0.685,0.62v6.631h1.46L7.078,54.133
		L7.078,54.133z M14.036,54.133v5.57c0,0.733-0.123,1.262-0.372,1.578c-0.246,0.318-0.62,0.476-1.126,0.476
		c-0.436,0-0.794-0.11-1.083-0.324c-0.289-0.219-0.513-0.428-0.682-0.631V54.13h-1.46v8.65h1.334v-0.973h0.035
		c0.037,0.072,0.115,0.174,0.235,0.316c0.12,0.142,0.275,0.273,0.465,0.398c0.193,0.126,0.422,0.235,0.687,0.332
		s0.564,0.144,0.901,0.144c0.385,0,0.733-0.056,1.045-0.171c0.313-0.112,0.575-0.294,0.791-0.551
		c0.217-0.249,0.388-0.58,0.505-0.981c0.12-0.404,0.182-0.898,0.182-1.487v-5.679h-1.46V54.133z M17.279,58.334
		c0,0.877,0.112,1.612,0.342,2.198c0.23,0.588,0.521,1.062,0.882,1.425c0.361,0.361,0.77,0.615,1.225,0.765
		c0.457,0.15,0.912,0.225,1.369,0.225c0.278,0,0.519-0.021,0.722-0.064c0.203-0.04,0.372-0.094,0.503-0.155v4.147l1.46,0.163V54.133
		h-1.334v0.922H22.41c-0.037-0.072-0.104-0.171-0.198-0.302c-0.096-0.123-0.23-0.249-0.396-0.374
		c-0.168-0.126-0.38-0.235-0.631-0.326c-0.251-0.091-0.548-0.136-0.882-0.136c-0.409,0-0.797,0.083-1.166,0.243
		c-0.366,0.163-0.687,0.422-0.963,0.773c-0.275,0.356-0.495,0.813-0.658,1.372C17.359,56.863,17.279,57.54,17.279,58.334z
		 M20.702,55.216c0.227,0,0.433,0.032,0.612,0.091c0.182,0.059,0.334,0.134,0.471,0.225c0.128,0.091,0.243,0.182,0.332,0.278
		c0.088,0.096,0.16,0.182,0.206,0.254v5.337c-0.131,0.08-0.283,0.152-0.457,0.214c-0.174,0.062-0.393,0.091-0.658,0.091
		c-0.337,0-0.652-0.056-0.947-0.168c-0.294-0.115-0.551-0.307-0.765-0.567c-0.219-0.267-0.388-0.61-0.516-1.027
		c-0.126-0.422-0.187-0.941-0.187-1.551c0-0.604,0.051-1.102,0.152-1.505c0.104-0.404,0.246-0.73,0.425-0.976
		c0.179-0.243,0.382-0.422,0.612-0.532C20.21,55.269,20.45,55.216,20.702,55.216z M33.48,61.596h-1.765v-7.463h-1.463v7.463H29.21
		v0.971l1.043,0.201v1.73c0,0.471,0.067,0.872,0.201,1.209c0.134,0.337,0.307,0.612,0.521,0.829
		c0.219,0.219,0.468,0.374,0.759,0.471c0.289,0.096,0.594,0.144,0.917,0.144c0.316,0,0.578-0.045,0.797-0.126
		c0.217-0.086,0.358-0.152,0.43-0.198l-0.307-1.211c-0.07,0.051-0.168,0.102-0.305,0.155c-0.131,0.056-0.291,0.083-0.487,0.083
		c-0.348,0-0.612-0.107-0.791-0.326c-0.179-0.217-0.27-0.612-0.27-1.187v-1.551h1.947L33.48,61.596z M40.975,54.133h-1.334v0.976
		h-0.037c-0.035-0.072-0.112-0.176-0.233-0.318c-0.118-0.136-0.273-0.267-0.457-0.393c-0.187-0.128-0.412-0.238-0.676-0.334
		c-0.265-0.096-0.559-0.144-0.885-0.144c-0.385,0-0.73,0.056-1.035,0.171c-0.305,0.115-0.567,0.297-0.783,0.551
		c-0.219,0.251-0.382,0.58-0.495,0.984c-0.118,0.404-0.171,0.901-0.171,1.487v5.677h1.457v-5.57c0-0.722,0.115-1.233,0.353-1.54
		c0.233-0.307,0.596-0.46,1.088-0.46c0.42,0,0.775,0.104,1.062,0.316c0.289,0.211,0.516,0.417,0.685,0.62v6.631h1.46v-8.653H40.975z
		 M37.389,65.273c0-0.278-0.086-0.5-0.251-0.666c-0.168-0.168-0.374-0.254-0.612-0.254c-0.241,0-0.447,0.086-0.612,0.254
		c-0.168,0.168-0.254,0.39-0.254,0.666c0,0.275,0.083,0.5,0.254,0.666c0.168,0.168,0.372,0.251,0.612,0.251
		c0.238,0,0.444-0.083,0.612-0.251C37.304,65.77,37.389,65.548,37.389,65.273z M40.162,65.273c0-0.278-0.08-0.5-0.249-0.666
		c-0.168-0.168-0.372-0.254-0.612-0.254c-0.241,0-0.447,0.086-0.612,0.254c-0.168,0.168-0.251,0.39-0.251,0.666
		c0,0.275,0.083,0.5,0.251,0.666c0.168,0.168,0.372,0.251,0.612,0.251c0.241,0,0.444-0.083,0.612-0.251S40.162,65.548,40.162,65.273
		z M47.015,61.505c-0.035,0.024-0.115,0.056-0.235,0.091c-0.12,0.037-0.281,0.053-0.487,0.053c-0.457,0-0.813-0.12-1.075-0.369
		c-0.257-0.249-0.439-0.511-0.545-0.802v-6.345h-1.46v8.65h1.334v-1.171h0.035c0.062,0.171,0.142,0.334,0.233,0.497
		c0.102,0.163,0.217,0.307,0.361,0.436c0.144,0.126,0.318,0.222,0.513,0.297c0.198,0.072,0.436,0.11,0.711,0.11
		c0.203,0,0.369-0.019,0.497-0.056c0.126-0.037,0.225-0.067,0.297-0.091L47.015,61.505z M60.438,54.133h-1.564v5.661h-5.139v-5.661
		h-1.57v12.434h1.57v-5.532h5.139v5.532h1.564V54.133z M68.457,59.863c0-0.372-0.011-0.69-0.032-0.963
		c-0.024-0.267-0.053-0.505-0.072-0.711h-4.417c0.048-1.021,0.267-1.77,0.658-2.251c0.39-0.479,0.952-0.722,1.685-0.722
		c0.251,0,0.481,0.032,0.682,0.091c0.209,0.059,0.382,0.131,0.532,0.214c0.155,0.086,0.281,0.168,0.38,0.251
		c0.102,0.086,0.179,0.152,0.225,0.201l0.543-1.029c-0.059-0.059-0.152-0.147-0.27-0.257c-0.118-0.118-0.281-0.23-0.487-0.345
		c-0.206-0.115-0.455-0.214-0.759-0.297c-0.299-0.083-0.652-0.128-1.062-0.128c-0.54,0-1.035,0.091-1.471,0.273
		c-0.439,0.179-0.81,0.46-1.115,0.84c-0.307,0.377-0.545,0.858-0.711,1.441c-0.168,0.583-0.254,1.281-0.254,2.099
		c0,0.767,0.088,1.433,0.265,1.992c0.171,0.556,0.409,1.019,0.709,1.38c0.302,0.361,0.652,0.628,1.048,0.802
		c0.396,0.174,0.824,0.259,1.278,0.259c0.834,0,1.479-0.259,1.949-0.783C68.23,61.695,68.457,60.914,68.457,59.863z M65.722,61.812
		c-0.519,0-0.933-0.217-1.243-0.65c-0.316-0.433-0.495-1.059-0.543-1.874h3.153c0.011,0.059,0.021,0.15,0.027,0.262
		s0.008,0.238,0.008,0.366c0,0.604-0.12,1.067-0.361,1.398C66.524,61.647,66.177,61.812,65.722,61.812z M71.867,54.133h-1.457v8.65
		h1.457V54.133z M71.145,64.877c-0.302,0-0.543,0.094-0.722,0.286c-0.182,0.193-0.27,0.444-0.27,0.757
		c0,0.302,0.088,0.548,0.27,0.741c0.179,0.193,0.42,0.289,0.722,0.289c0.286,0,0.521-0.096,0.703-0.289
		c0.179-0.193,0.27-0.439,0.27-0.741c0-0.313-0.091-0.564-0.27-0.757C71.666,64.973,71.431,64.877,71.145,64.877z M78.642,54.133
		v5.57c0,0.709-0.104,1.219-0.307,1.532c-0.206,0.31-0.535,0.468-0.992,0.468c-0.241,0-0.455-0.029-0.642-0.091
		c-0.185-0.059-0.35-0.136-0.497-0.222c-0.144-0.091-0.27-0.19-0.377-0.299c-0.11-0.107-0.198-0.203-0.273-0.286v-6.671h-1.457v8.65
		h1.332V61.81h0.037c0.059,0.096,0.15,0.214,0.27,0.353c0.12,0.136,0.273,0.267,0.452,0.396c0.179,0.126,0.39,0.23,0.628,0.313
		c0.241,0.086,0.513,0.126,0.81,0.126c0.984,0,1.682-0.388,2.094-1.155c0.083,0.123,0.195,0.249,0.34,0.388
		c0.144,0.139,0.313,0.267,0.503,0.377c0.193,0.118,0.412,0.209,0.65,0.281c0.238,0.072,0.505,0.11,0.794,0.11
		c1.751,0,2.626-1.019,2.626-3.062V54.13h-1.457v5.57c0,0.709-0.126,1.219-0.38,1.532c-0.254,0.31-0.623,0.468-1.118,0.468
		c-0.409,0-0.749-0.102-1.019-0.297c-0.267-0.198-0.484-0.39-0.639-0.57c0.024-0.131,0.043-0.273,0.056-0.42
		c0.011-0.152,0.016-0.316,0.016-0.479V54.13h-1.449V54.133z M86.319,56.334c0,0.503,0.096,0.925,0.289,1.262
		c0.193,0.337,0.449,0.612,0.775,0.818c0.326,0.211,0.709,0.364,1.144,0.452C88.969,58.954,89.434,59,89.926,59h0.449v0.832
		c0,0.73-0.128,1.235-0.388,1.511c-0.257,0.275-0.62,0.414-1.091,0.414c-0.436,0-0.794-0.094-1.083-0.281
		c-0.289-0.182-0.516-0.35-0.685-0.495l-0.612,0.973c0.096,0.094,0.219,0.206,0.372,0.324c0.15,0.12,0.334,0.235,0.551,0.342
		c0.217,0.11,0.46,0.198,0.738,0.273c0.278,0.072,0.591,0.11,0.936,0.11c0.89,0,1.562-0.246,2.021-0.741
		c0.452-0.492,0.682-1.283,0.682-2.377v-3.947c0-0.372,0.011-0.735,0.037-1.088c0.021-0.353,0.048-0.594,0.072-0.714h-1.388
		l-0.053,0.955h-0.037c-0.048-0.107-0.12-0.23-0.217-0.366c-0.096-0.139-0.217-0.267-0.361-0.38
		c-0.144-0.115-0.316-0.214-0.521-0.297c-0.206-0.083-0.447-0.128-0.719-0.128c-0.329,0-0.628,0.062-0.909,0.182
		c-0.281,0.118-0.529,0.286-0.738,0.503c-0.214,0.219-0.372,0.473-0.489,0.767C86.375,55.665,86.319,55.986,86.319,56.334z
		 M88.932,55.162c0.203,0,0.382,0.029,0.54,0.091c0.158,0.059,0.294,0.131,0.406,0.214c0.112,0.083,0.211,0.179,0.289,0.278
		c0.078,0.102,0.147,0.19,0.206,0.262v1.912l-0.468-0.019c-0.698-0.024-1.225-0.144-1.588-0.361
		c-0.358-0.214-0.537-0.564-0.537-1.045c0-0.447,0.104-0.778,0.305-1C88.29,55.272,88.573,55.162,88.932,55.162z M97.71,61.596
		h-1.89v-4.792c0-0.615,0.075-1.032,0.23-1.254c0.158-0.222,0.422-0.334,0.794-0.334c0.217,0,0.401,0.032,0.556,0.091
		s0.27,0.112,0.342,0.16l0.198-1.171c-0.061-0.048-0.206-0.126-0.433-0.227c-0.227-0.104-0.532-0.155-0.917-0.155
		c-0.746,0-1.305,0.209-1.677,0.626c-0.372,0.409-0.559,1.102-0.559,2.062v4.992h-1.045v0.971l1.045,0.219l0.163,2.415h1.3v-2.415
		h2.07L97.71,61.596z"/>
</g>
</svg>
