<?xml version="1.0" encoding="UTF-8"?> <svg xmlns="http://www.w3.org/2000/svg" viewBox="0 0 70.17 21.08"><defs><style>.cls-1{fill:#c03;fill-rule:evenodd;}</style></defs><title>Ebene 2</title><g id="Ebene_2" data-name="Ebene 2"><g id="Ebene_1-2" data-name="Ebene 1"><g id="Ebene_2-2" data-name="Ebene 2"><g id="Ebene_1-2-2" data-name="Ebene 1-2"><g id="Ebene_2-2-2" data-name="Ebene 2-2"><g id="Ebene_1-2-2-2" data-name="Ebene 1-2-2"><path class="cls-1" d="M70.11,9V7.08a5.08,5.08,0,0,1,0-.78L70,6.14H68.07V1.54H68l-1,.32-.85.25-.89.24-1.16.29L64,2.81V6.17H62.71l-.16.16V9l.14.16H64V17.4a6.73,6.73,0,0,0,.17,1.34,3.08,3.08,0,0,0,.48,1,2.67,2.67,0,0,0,.82.71,3.48,3.48,0,0,0,.94.37,5.2,5.2,0,0,0,.88.14H69a5.74,5.74,0,0,0,1-.21l.17-.22v-2a4.69,4.69,0,0,1,0-.75L70,17.66a1.65,1.65,0,0,1-.91.28,1.09,1.09,0,0,1-.72-.23,1.38,1.38,0,0,1-.38-.62,4.38,4.38,0,0,1-.15-.88v-7h1.9ZM52.74,17.29v2.84l.14.25a7,7,0,0,0,1.27.42,9.09,9.09,0,0,0,1.27.21,11.22,11.22,0,0,0,1.16,0,8.69,8.69,0,0,0,1.25,0,5.3,5.3,0,0,0,1.36-.39,4.43,4.43,0,0,0,1.28-.86,4.22,4.22,0,0,0,1.05-1.55,5.05,5.05,0,0,0,.35-1.84,4.35,4.35,0,0,0-.28-1.6,3.6,3.6,0,0,0-.71-1.17,6.31,6.31,0,0,0-1-.86c-.35-.24-.7-.47-1.05-.67s-.87-.52-1.18-.73A2.59,2.59,0,0,1,57,10.7a1.36,1.36,0,0,1,0-1.43,1.25,1.25,0,0,1,.57-.52,2.51,2.51,0,0,1,1.08-.21,3.44,3.44,0,0,1,1.19.18,3.15,3.15,0,0,1,.8.4,3.72,3.72,0,0,1,.49.4l.19-.06V6.59L61.2,6.4a7.05,7.05,0,0,0-1.11-.32A9.89,9.89,0,0,0,59,5.91H58a9.32,9.32,0,0,0-1.4.1,6.08,6.08,0,0,0-1.33.36,4.14,4.14,0,0,0-1.18.7,3.6,3.6,0,0,0-.82,1,4,4,0,0,0-.43,1,5.13,5.13,0,0,0-.16.87v.6A4.48,4.48,0,0,0,53,12.16a3.82,3.82,0,0,0,.74,1.2,6.26,6.26,0,0,0,1.12,1c.43.29.9.58,1.41.88.24.14.48.29.7.45a2.09,2.09,0,0,1,.52.55,1.45,1.45,0,0,1,.21.76,1.44,1.44,0,0,1-.08.46,1.36,1.36,0,0,1-.29.49,1.5,1.5,0,0,1-.58.38,2.57,2.57,0,0,1-1,.16,3.65,3.65,0,0,1-1.23-.21,4.32,4.32,0,0,1-.91-.46,5.41,5.41,0,0,1-.61-.46Zm-6-6.29v1a10.87,10.87,0,0,1-.13,1.4,12.44,12.44,0,0,1-.3,1.5,6,6,0,0,1-.55,1.37,2.89,2.89,0,0,1-.87,1,2.23,2.23,0,0,1-.64.31,2.46,2.46,0,0,1-1.71-.12,2.56,2.56,0,0,1-.8-.46,3,3,0,0,1-.46-.6,4.16,4.16,0,0,1-.24-.47,6.73,6.73,0,0,1-.44-1.31,11.22,11.22,0,0,1-.24-1.41c0-.46-.08-.89-.1-1.27s0-.68,0-.89V9.79a9.06,9.06,0,0,1,.16-1.47,11.06,11.06,0,0,1,.34-1.49,5.65,5.65,0,0,1,.59-1.3,3.07,3.07,0,0,1,.9-.93,2.49,2.49,0,0,1,2.44-.06,2.8,2.8,0,0,1,.82.75,4.83,4.83,0,0,1,.54,1,6.74,6.74,0,0,1,.33,1.08c.08.36.13.68.17,1s.1.88.12,1.33,0,.89,0,1.34M43.62,1a8.47,8.47,0,0,0-3.51.7,6.62,6.62,0,0,0-2.51,2,9.1,9.1,0,0,0-1.51,3.21,16.74,16.74,0,0,0-.51,4.29,15.64,15.64,0,0,0,.55,4.31,8.45,8.45,0,0,0,1.49,3A6.73,6.73,0,0,0,39.28,20a7.11,7.11,0,0,0,1.71.77,7.55,7.55,0,0,0,1.49.29,8.34,8.34,0,0,0,1,0,7.6,7.6,0,0,0,5-1.59,8.09,8.09,0,0,0,2.64-4.6A13.19,13.19,0,0,0,51.4,13c.06-.64.09-1.28.09-1.91a21.75,21.75,0,0,0-.11-2.28,12.17,12.17,0,0,0-.38-2,8,8,0,0,0-2.63-4.37A7.42,7.42,0,0,0,43.62,1m-9,8V6.3l-.16-.16h-2V1.54l-.19-.14-1,.32L30.39,2l-.89.24-1.16.29-.14.19V6.05H27V9l.14.16h1.35V17.4a6.73,6.73,0,0,0,.17,1.34,3.08,3.08,0,0,0,.48,1,2.67,2.67,0,0,0,.82.71,3.48,3.48,0,0,0,.94.37,5.2,5.2,0,0,0,.88.14h.64a8.18,8.18,0,0,0,1.21-.06,5.74,5.74,0,0,0,1-.21l.16-.22V18.53a4.69,4.69,0,0,1,0-.75l-.17-.14a1.65,1.65,0,0,1-.91.28,1.09,1.09,0,0,1-.72-.23,1.18,1.18,0,0,1-.38-.62,4.38,4.38,0,0,1-.15-.88v-7h1.9ZM25.69,20.59c-.09-1.43-.16-2.86-.2-4.28s0-2.85,0-4.28V6l-.17-.16-1.21.26-.95.18-.95.15L21,6.58l-.14.17A5.18,5.18,0,0,0,21,7.9,8.84,8.84,0,0,1,21,9.33c0,.54,0,1.2.06,2s0,1.7,0,2.78v5.27a10,10,0,0,1,0,1.34l.17.16,1.24-.06h3.11ZM25.27,3.44V.15L25.14,0l-1,.16-.82.11-.86.1L21.23.5l-.17.16V4l.17.17L22.36,4l.85-.13.85-.11,1.06-.12ZM8,5.84,7.65,4.41l-.22-1-.16-.68a4.13,4.13,0,0,0-.13-.61L7,1.41l-.17-.17H1L.82,1.4V4.86C.82,5.36.7,6,.68,6.64L.43,12.69A8.16,8.16,0,0,1,.36,14c-.07.38,0,.74-.06,1.08l-.06,1a7.39,7.39,0,0,1-.06,1.15c-.06.42,0,.91-.08,1.46a14.45,14.45,0,0,0-.1,2l.14.16H3.73l.14-.17v-6c0-.7,0-1.52.06-2.47L4.1,5.86l2,9.06c.15.65.3,1.3.44,2l.44,2,.41,1.86.17.16H11l.19-.17q.11-.59.24-1.17c.09-.39.17-.82.27-1.28s.21-1,.34-1.55l.45-2,2.09-9L14.64,13v7.67l.17.16h4.32l.14-.17c0-.53-.06-1-.09-1.47s-.05-.91-.08-1.38-.05-1-.08-1.55-.06-1.23-.1-2-.08-1.64-.13-2.66l-.05-4.3a10.36,10.36,0,0,0-.07-1.55c-.07-.44,0-.83-.05-1.17a8.34,8.34,0,0,1,0-1V1.38l-.19-.17H12.66l-.17.16c-.07.39-.14.72-.2,1s-.11.56-.16.81-.11.5-.17.76-.12.55-.2.86-.16.69-.27,1.13l-1.7,7.73Z"></path></g></g></g></g></g></g></svg> 