<svg version="1.1" id="Layer_1" xmlns="http://www.w3.org/2000/svg" x="0" y="0" viewBox="0 0 270.8 332.9" style="enable-background:new 0 0 270.8 332.9" xml:space="preserve"><style>.st2{fill:#fff}</style><path d="M107.4 109c0 5.3.9 10.5 2.7 15.5a49.1 49.1 0 0 0 9.2 15.6 46.64 46.64 0 0 0 65.8 3.7c1.2-1.2 2.5-2.4 3.7-3.7 4.1-4.5 7.2-9.9 9.2-15.6 1.8-5 2.7-10.2 2.7-15.5h-93.3z" style="fill:#ffcf00"/><path d="M200.7 109c0-5.3-.9-10.5-2.7-15.5a49.1 49.1 0 0 0-9.2-15.6 46.64 46.64 0 0 0-65.8-3.7c-1.2 1.2-2.5 2.4-3.7 3.7-4.1 4.5-7.2 9.9-9.2 15.6-1.8 5-2.7 10.2-2.7 15.5h93.3z" style="fill:#005bbb"/><path class="st2" d="M197.2 77.6C118.8-3.6 0 0 0 0v262.8h270.6c0 .1 6-103-73.4-185.2zm62.5 174.6H11V10.7s113 3.2 180 74.2c70.3 74.6 68.7 167.3 68.7 167.3zM19.2 321.4a18.14 18.14 0 0 1-13.9-6.2A20.7 20.7 0 0 1 0 301.4c0-2.6.5-5.2 1.5-7.5.9-2.4 2.3-4.5 4-6.4s3.8-3.4 6.1-4.4c2.4-1.1 5.1-1.7 7.7-1.6 2.7 0 5.4.6 7.8 1.7 2.3 1.1 4.3 2.7 6 4.6s3 4.1 3.9 6.4 1.4 4.8 1.4 7.3c0 2.6-.5 5.1-1.5 7.5a19.85 19.85 0 0 1-10.1 10.7c-2.3 1.1-4.9 1.7-7.6 1.7zm-11.4-20c0 1.7.3 3.3.8 4.9.5 1.5 1.3 3 2.3 4.2s2.2 2.2 3.6 2.9c3.1 1.5 6.7 1.5 9.8 0 1.4-.7 2.6-1.8 3.6-3 1-1.3 1.7-2.7 2.2-4.2.5-1.6.7-3.2.8-4.8 0-1.7-.3-3.3-.8-4.9-.5-1.5-1.3-3-2.3-4.2s-2.2-2.2-3.6-2.9a11.25 11.25 0 0 0-9.7 0c-1.4.7-2.6 1.8-3.6 3-1 1.3-1.7 2.7-2.2 4.2-.7 1.6-.9 3.2-.9 4.8zM44.3 321.1v-39.4H52v18.7l16.5-18.8H77l-15.1 17.5 16 21.9h-8.6L57 304l-5 5.3v11.8h-7.7z"/><path class="st2" d="M96.2 321.4a18.14 18.14 0 0 1-13.9-6.2 20.7 20.7 0 0 1-5.3-13.8c0-2.6.5-5.2 1.5-7.5 1-2.4 2.3-4.5 4.1-6.4 1.7-1.9 3.8-3.4 6.1-4.4 2.4-1.1 5.1-1.7 7.7-1.6 2.7 0 5.4.6 7.8 1.7 2.3 1.1 4.3 2.7 6 4.6s3 4.1 3.9 6.4a20.16 20.16 0 0 1-4 21.1 19.05 19.05 0 0 1-13.9 6.1zm-11.4-20c0 1.7.3 3.3.8 4.9.5 1.5 1.3 3 2.3 4.2s2.2 2.2 3.6 2.9c3.1 1.5 6.7 1.5 9.8 0 1.4-.7 2.6-1.8 3.6-3 1-1.3 1.7-2.7 2.2-4.2.5-1.6.7-3.2.8-4.8 0-1.7-.3-3.3-.8-4.9-.5-1.5-1.3-3-2.3-4.2s-2.2-2.2-3.6-2.9a11.25 11.25 0 0 0-9.7 0c-1.4.7-2.6 1.8-3.6 3-1 1.3-1.7 2.7-2.2 4.2-.7 1.6-.9 3.2-.9 4.8zM119.3 321.1v-8h6.1v8h-6.1zM149.4 321.7c-2.1.1-4.2-.5-6-1.5-1.7-1-3.1-2.4-4-4.1V333H132v-41h6.5v5c1-1.7 2.5-3 4.2-4a12.53 12.53 0 0 1 11.3-.3c1.6.8 3.1 1.9 4.3 3.2 1.2 1.4 2.2 3 2.8 4.8.7 1.9 1 3.8 1 5.8s-.3 4-.9 5.9c-.6 1.8-1.5 3.4-2.6 4.8-1.1 1.3-2.5 2.4-4 3.2-1.7.9-3.4 1.3-5.2 1.3zm-2.5-6.4a6.7 6.7 0 0 0 5.5-2.7c.7-.8 1.2-1.8 1.5-2.8a9.6 9.6 0 0 0 0-6.7c-.4-1-1-2-1.7-2.8a7.89 7.89 0 0 0-5.7-2.5c-.7 0-1.5.1-2.2.4-.7.2-1.4.6-2 1s-1.2 1-1.7 1.6-.9 1.2-1.1 1.9v6.8c.6 1.6 1.7 3.1 3 4.1 1.2 1.1 2.8 1.7 4.4 1.7zM184.5 298.5c-2.1 0-4.1.4-6 1.3-1.7.7-3 2.1-3.8 3.7v17.6h-7.4V292h6.8v6.2c.5-1 1.1-1.9 1.8-2.7.7-.8 1.4-1.5 2.3-2.1.8-.6 1.6-1 2.5-1.4.8-.3 1.6-.5 2.4-.5h1.5v7h-.1zM200.7 321.7c-2.2 0-4.3-.4-6.3-1.2-1.8-.7-3.4-1.9-4.8-3.3a15.23 15.23 0 0 1-4.2-10.5c0-2 .3-4 1.1-5.9 1.4-3.7 4.3-6.6 7.9-8.1 2-.8 4.2-1.3 6.4-1.2 2.2 0 4.3.4 6.4 1.2 1.8.8 3.4 1.9 4.8 3.3 1.3 1.4 2.3 3 3 4.8s1 3.7 1 5.7v1.4c0 .4-.1.7-.1 1.1h-22.5c.1 1.1.4 2.1.8 3.1.4.9 1 1.6 1.7 2.3.7.6 1.5 1.1 2.4 1.4s1.8.5 2.8.5c1.5 0 2.9-.4 4.2-1.1 1.2-.6 2.2-1.6 2.7-2.9l6.4 1.8a12.9 12.9 0 0 1-5.1 5.5c-2.8 1.4-5.7 2.1-8.6 2.1zm7.5-17.6c-.1-2-1-3.9-2.4-5.3a7.8 7.8 0 0 0-8-1.4c-.9.3-1.6.8-2.3 1.5s-1.2 1.4-1.6 2.3c-.4.9-.7 1.9-.8 3h15.1v-.1zM231.4 321.7c-2.4 0-4.9-.4-7.2-1.2-2.2-.7-4.2-1.8-6-3.3l2.8-4.7c1.6 1.2 3.3 2.1 5.2 2.9 1.6.6 3.3 1 5 1 1.2.1 2.4-.2 3.5-.8.8-.5 1.3-1.4 1.3-2.4s-.6-1.9-1.5-2.3c-1.6-.7-3.2-1.2-4.9-1.7-1.9-.5-3.5-1-4.8-1.5-1.1-.4-2.2-.9-3.2-1.6a5.2 5.2 0 0 1-1.8-2.1c-.4-.9-.6-1.9-.6-2.9a8.86 8.86 0 0 1 3.3-7c1.1-.9 2.3-1.5 3.6-1.9 1.5-.5 3-.7 4.5-.7 2.1 0 4.2.3 6.1 1 1.9.6 3.7 1.7 5.3 3l-3 4.5c-1.3-1-2.8-1.8-4.3-2.4-1.3-.5-2.7-.8-4.1-.8-1.1 0-2.2.2-3.2.8-.9.5-1.4 1.5-1.3 2.5 0 .4.1.9.3 1.3.3.4.6.7 1 .9.6.3 1.1.6 1.8.8.7.2 1.6.5 2.7.8 2 .5 3.7 1 5.1 1.6 1.2.4 2.4 1 3.5 1.8.8.6 1.5 1.4 2 2.3.4 1 .7 2.1.6 3.1.1 2.6-1.1 5.1-3.2 6.7-2 1.5-4.8 2.3-8.5 2.3zM259 321.7c-2.4 0-4.9-.4-7.2-1.2-2.2-.7-4.2-1.8-6-3.3l2.8-4.7c1.6 1.2 3.3 2.1 5.2 2.9 1.6.6 3.3 1 5 1 1.2.1 2.4-.2 3.5-.8.8-.5 1.3-1.4 1.3-2.4s-.6-1.9-1.5-2.3c-1.6-.7-3.2-1.2-4.9-1.7-1.9-.5-3.5-1-4.8-1.5-1.1-.4-2.2-.9-3.2-1.6a5.2 5.2 0 0 1-1.8-2.1c-.4-.9-.6-1.9-.5-2.9a8.86 8.86 0 0 1 3.3-7c1.1-.9 2.3-1.5 3.6-1.9 1.5-.5 3-.7 4.5-.7 2.1 0 4.2.3 6.1 1 1.9.6 3.7 1.7 5.3 3l-3 4.5c-1.3-1-2.8-1.8-4.3-2.4-1.3-.5-2.7-.8-4.1-.8-1.1 0-2.2.2-3.2.8-.9.5-1.3 1.5-1.3 2.5 0 .4.1.9.3 1.3.3.4.6.7 1 .9.6.3 1.1.6 1.8.8.7.2 1.6.5 2.7.8 2 .5 3.7 1 5.1 1.6 1.2.4 2.4 1 3.5 1.8.8.6 1.5 1.4 2 2.3.4 1 .7 2.1.6 3.1.1 2.6-1.1 5.1-3.2 6.7-2.1 1.5-5 2.3-8.6 2.3z"/></svg>