<svg id="Layer_1" data-name="Layer 1" xmlns="http://www.w3.org/2000/svg" viewBox="0 0 561.75 561.75"><defs><style>.cls-1{fill:none;stroke:#fff;stroke-width:4.27px;}.cls-2{fill:#fff;}.cls-3{fill:#bcbec0;stroke:#dedddd;stroke-width:0.35px;}.cls-4{fill:#ffc91f;}.cls-5{fill:#327ec1;}.cls-6{fill:#ed1c24;}</style></defs><circle class="cls-1" cx="280.88" cy="280.88" r="278.74"/><path class="cls-2" d="M72.32,258.28,75.46,249l9.33,4.43-3.64,10.8,11.57,3.9,3.15-9.33L106,263.62l4.16-12.34L100,246.41l2.57-7.64,10.13,4.87,4.16-12.34-10.13-4.87,3.64-10.8-11.57-3.89-3.15,9.33-9.32-4.43L90,205.84l-11.56-3.9-3.15,9.33L65.16,206.4,61,218.74l10.12,4.87-2.57,7.64-10.13-4.87-4.15,12.34,10.12,4.87-3.64,10.8ZM82.2,229l9.33,4.43L89,241l-9.33-4.43Z" transform="translate(-16.76 -9.89)"/><path class="cls-2" d="M137.08,194.15l-13-10.2,8.68-11.06q6.18-7.87,6-15.28T131.9,145q-6.59-5.17-13.86-3.66t-13.45,9.4l-12.1,15.41,41.17,32.31ZM99.67,164.79l8.59-10.94q4.8-6.1,10-7.25t10.22,2.79q4.88,3.83,5,9.17T128.84,170L120.26,181Z" transform="translate(-16.76 -9.89)"/><path class="cls-2" d="M168.57,140.62a25.5,25.5,0,0,0,13.44,2.8,30.29,30.29,0,0,0,23.8-15,25.41,25.41,0,0,0,3.23-13.3,27.74,27.74,0,0,0-14.55-23.09,25.44,25.44,0,0,0-13.4-2.82,30.27,30.27,0,0,0-23.76,15,25.22,25.22,0,0,0-3.26,13.32,27.81,27.81,0,0,0,14.5,23ZM162,106.36a23.84,23.84,0,0,1,19-12,20.34,20.34,0,0,1,10.79,2.39,23.14,23.14,0,0,1,11.84,18.79,20.32,20.32,0,0,1-2.5,10.76,23.91,23.91,0,0,1-19,12A20.48,20.48,0,0,1,171.29,136a22.83,22.83,0,0,1-11.84-18.79A20.4,20.4,0,0,1,162,106.36Z" transform="translate(-16.76 -9.89)"/><polygon class="cls-2" points="247.34 94.58 249.91 94.1 263.77 55.76 271.34 96.94 276.56 95.98 267.11 44.5 262.62 45.33 247.49 87.56 218.13 53.5 213.65 54.32 223.1 105.79 228.32 104.83 220.8 63.88 247.34 94.58"/><path class="cls-2" d="M359.12,114.57l5.73,1.05-14.06-55.8-5.37-1-33,47.15,5.66,1,8.7-12.61,28.68,5.27ZM329.59,90.36,347,65,354.3,94.9Z" transform="translate(-16.76 -9.89)"/><path class="cls-2" d="M402,134.45A32.08,32.08,0,0,0,412,138.06a25.48,25.48,0,0,0,10-.1l9.69-17.45-4.64-2.58-8.56,15.43a22.78,22.78,0,0,1-13.92-3.11,23.12,23.12,0,0,1-8.63-8,21,21,0,0,1-3.21-10.68A22.51,22.51,0,0,1,403.5,92.15a20.59,20.59,0,0,1,10.8-2.9,23.47,23.47,0,0,1,11.4,3.12q8.35,4.65,10.81,13l4.71-1.4a21.82,21.82,0,0,0-4.64-9,30.85,30.85,0,0,0-8.69-7,29,29,0,0,0-14.09-3.89,25.34,25.34,0,0,0-13.25,3.54,27.76,27.76,0,0,0-13.25,23.86,25.33,25.33,0,0,0,4,13.12A29,29,0,0,0,402,134.45Z" transform="translate(-16.76 -9.89)"/><path class="cls-2" d="M437.45,158.22l14.59-4.7,19.53,21.64-6.17,14,3.91,4.33,22.82-52.82-3.65-4L433.6,154ZM486,142.5l-12.46,28.16L456.72,152Z" transform="translate(-16.76 -9.89)"/><polygon class="cls-2" points="464.52 204.75 503.31 189.61 478.19 221.48 479.15 223.92 519.43 230.27 480.43 245.49 482.36 250.44 531.11 231.41 529.45 227.16 485.12 220.3 513 185.02 511.34 180.77 462.59 199.81 464.52 204.75"/><path class="cls-2" d="M134.38,385.43l-6.78-18.18L97.47,378.12q-6.14,2.22-9.73,1.06A8,8,0,0,1,82.63,374a7.79,7.79,0,0,1,.47-7.24q2-3.17,8.12-5.38l30.14-10.87L114.47,332,83.78,343Q71.26,347.56,67,357.11t.39,22.18Q72,391.92,81.6,396.47t22.08,0Z" transform="translate(-16.76 -9.89)"/><polygon class="cls-2" points="154.16 418.31 125.07 418.88 140.77 404.34 127.27 390.24 84 430.33 97.5 444.43 108.19 434.52 114.92 434.36 110.77 458.29 126.65 474.88 133.78 434.56 169.11 433.93 154.16 418.31"/><path class="cls-2" d="M235.17,469.57a35,35,0,0,0-12-8.15L197,450,172.93,503.5l18.32,8L197.3,498l5,2.16,3.18,17.46L225,526.16l-4-21.46a20.77,20.77,0,0,0,14.14-35.13Zm-14.81,14.74a6.49,6.49,0,0,1-3.94,3.82q-2.59.83-6.33-.79l-6.67-2.91,5.64-12.52,6.67,2.9q3.72,1.62,4.85,4.07A6.31,6.31,0,0,1,220.36,484.31Z" transform="translate(-16.76 -9.89)"/><path class="cls-2" d="M283.25,475.87,256.51,534l20.37.25L281,524.11l22.58.27,3.85,10.24,20.72.25L303,476.1ZM286.71,510l6-14.63,5.58,14.77Z" transform="translate(-16.76 -9.89)"/><polygon class="cls-2" points="324.73 460.56 342.88 516.21 361.96 510.18 343.81 454.53 324.73 460.56"/><polygon class="cls-2" points="394.17 425.61 410.19 446.98 375.99 438.79 362.73 448.41 397.98 495.45 413.7 484.05 397.69 462.68 431.88 470.87 445.14 461.25 409.9 414.21 394.17 425.61"/><polygon class="cls-2" points="421.57 398.24 470.11 431.94 481.67 415.84 433.13 382.14 421.57 398.24"/><polygon class="cls-2" points="492.27 360.45 484.85 358.06 492.69 334.57 478.98 330.15 471.13 353.64 464.52 351.5 473.45 324.76 459.09 320.13 444.01 365.28 500.47 383.5 515.9 337.31 501.54 332.68 492.27 360.45"/><circle class="cls-3" cx="280.72" cy="280.88" r="137.66"/><polygon class="cls-4" points="311.28 311.44 311.28 250.31 250.16 250.31 250.16 311.44 250.16 372.56 311.28 372.56 311.28 311.44"/><polygon class="cls-2" points="311.28 250.31 311.28 189.19 249.73 189.19 249.73 250.31 249.73 311.44 311.28 311.44 311.28 250.31"/><polygon class="cls-5" points="311.28 250.31 250.16 250.31 250.16 311.44 311.28 311.44 372.41 311.44 372.41 250.31 311.28 250.31"/><polygon class="cls-6" points="249.73 250.31 188.61 250.31 188.61 311.44 249.73 311.44 310.85 250.31 249.73 250.31"/></svg>