<svg xmlns="http://www.w3.org/2000/svg" viewBox="0 0 349.07 88"><defs><style>.cls-1,.cls-2{fill:#fff;}.cls-1{opacity:0;}</style></defs><g id="Layer_2" data-name="Layer 2"><g id="Ebene_1" data-name="Ebene 1"><rect class="cls-1" width="349.07" height="88"/><path class="cls-2" d="M121.64,32.64,114.33,55h-3.22l-3.57-11.26c-.9-2.84-1.12-4.15-1.15-4.15h0s-.26,1.34-1.15,4.15L101.63,55H98.41L91.14,32.64h3.73L99.11,46.2c.61,2,.93,3.38,1,3.38h0s.32-1.4,1-3.38l3.67-10.85H108l3.67,10.85c.7,2,1,3.38,1,3.38h0s.35-1.4.93-3.38l4.27-13.56Z"/><path class="cls-2" d="M145.25,32.64V45.5c0,6.44-3.54,9.92-9.41,9.92s-9.38-3.48-9.38-9.92V32.64H130V45.46c0,4.5,2,6.67,5.84,6.67s5.9-2.17,5.9-6.67V32.64Z"/><path class="cls-2" d="M170.58,32.64V55h-3.32l-8.13-11c-2-2.72-3.89-5.49-3.93-5.49h0s.07,3,.07,7V55H151.7V32.64H155l8.2,11c1.6,2.17,3.83,5.29,3.86,5.29h0s-.06-3.29-.06-6.79V32.64Z"/><path class="cls-2" d="M187.49,32.64c6.38,0,11.58,4.56,11.58,11.26S193.94,55,187.65,55H178V32.64Zm.16,19a7.48,7.48,0,0,0,7.75-7.75A7.66,7.66,0,0,0,187.49,36h-6V51.65Z"/><path class="cls-2" d="M220.23,51.65V55H204.69V32.64H220V36H208.23v5.8h9.41v3.13h-9.41v6.76Z"/><path class="cls-2" d="M239.63,55l-4.73-8a3.88,3.88,0,0,1-.7,0h-3.76v8H226.9V32.64h7.3c5.36,0,8.59,2.84,8.59,7.24a6.48,6.48,0,0,1-4.47,6.44l5.3,8.65Zm-5-11.1c3,0,4.5-1.79,4.5-4s-1.6-3.92-4.5-3.92h-4.18v7.91Z"/><path class="cls-2" d="M253,36v6.47h9.09v3.19H253V55h-3.54V32.64h15V36Z"/><path class="cls-2" d="M285.22,51.65V55h-15V32.64h3.55v19Z"/><path class="cls-2" d="M305,49.9H294.54L292.47,55h-3.8l9.44-22.33h3.29L310.84,55H307Zm-1.28-3.1-2.87-7c-.47-1.22-1-2.91-1.05-2.91h0s-.58,1.69-1.05,2.91l-2.87,7Z"/><path class="cls-2" d="M328.93,32.64V36h-7.24V55h-3.51V36H311V32.64Z"/><path class="cls-2" d="M345.4,39.15a4.89,4.89,0,0,0-5-3.9c-2.49,0-4.18,1.22-4.18,3,0,2.14,2.81,2.84,5.68,3.74,3.19,1,7.18,2.58,7.18,6.76,0,3.86-3.35,6.67-8.33,6.67-4.75,0-7.88-2.75-8.84-6.64l3.38-.92a5.37,5.37,0,0,0,5.59,4.4c2.84,0,4.49-1.47,4.49-3.38,0-2.78-3.44-3.35-6.6-4.41-2.62-.89-6.16-2.13-6.16-6,0-3.47,3.35-6.25,7.95-6.25,4.14,0,7.4,2.46,8.23,6Z"/><path class="cls-2" d="M33.88,9.8l27.3,20.47V57.56L50.82,65.33,33.88,52.62,16.94,65.33,6.59,57.56V30.27L33.88,9.8m0-8.24L0,27V60.85L16.94,73.56,33.88,60.85,50.82,73.56,67.76,60.85V27L33.88,1.56Z"/></g></g></svg>